[img]http://www.shotpix.com/images/39874039576202562106.jpg[/img]
 
http://www.imdb.com/title/tt1308729/


[b]Plot: After watching their respective partners die, a New Orleans hitman and a Washington D.C. detective form an alliance in order to bring down their common enemy. 



Director:
 Walter Hill

Writers:
 Alessandro Camon ,Alexis Nolent

Stars:
 Sylvester Stallone, Jason Momoa, Christian Slater

Genres:
 Action | Crime | Thriller 

Country:
USA

Language:
English[/b]




Format : AVI
    Format/Info : Audio Video Interleave
    Format profile : OpenDML
    Format settings : rec
    File size : 1.32 GiB
    Duration : 1h 26mn
    Overall bit rate : 2 197 Kbps
    Writing application : AVI-Mux GUI 1.17.8, Aug 30 2008  12:36:58
 Video #0
    ID : 0
    Format : MPEG-4 Visual
    Format profile : Advanced Simple@L5
    Format settings, BVOP : 2
    Format settings, QPel : No
    Format settings, GMC : No warppoints
    Format settings, Matrix : Default (MPEG)
    Codec ID : XVID
    Codec ID/Hint : XviD
    Duration : 1h 26mn
    Bit rate : 2 063 Kbps
    Width : 720 pixels
    Height : 404 pixels
    Display aspect ratio : 16:9
    Frame rate : 29.970 fps
    Color space : YUV
    Chroma subsampling : 4:2:0
    Bit depth : 8 bits
    Scan type : Progressive
    Compression mode : Lossy
    Bits/(Pixel*Frame) : 0.237
    Stream size : 1.24 GiB (94%)
    Writing library : XviD 1.2.1 (UTC 2008-12-04)
 Audio #1
    ID : 1
    Format : AC-3
    Format/Info : Audio Coding 3
    Mode extension : CM (complete main)
    Codec ID : 2000
    Duration : 1h 26mn
    Bit rate mode : Constant
    Bit rate : 128 Kbps
    Channel(s) : 2 channels
    Channel positions : Front: L R
    Sampling rate : 44.1 KHz
    Bit depth : 16 bits
    Compression mode : Lossy
    Delay relative to video : 6s 200ms
    Stream size : 78.9 MiB (6%)
    Alignment : Split accross interleaves
    Interleave, duration : 70 ms (2.09 video frames)
    Interleave, preload duration : 209 ms



 
http://www.shotpix.com/images/02922615326373178339.png 
http://www.shotpix.com/images/71148186714414577872.png 
http://www.shotpix.com/images/71206135804705970826.png
